<svg id="Layer_4" data-name="Layer 4" xmlns="http://www.w3.org/2000/svg" viewBox="0 0 665.36 483.7"><defs><style>.cls-1{fill:#f1f2f2;}</style></defs><title>title</title><path class="cls-1" d="M155.77,59.42q0.78,0,2.24,7.83h0.35l1.15-1.31q0.46,4.57,1.15,4.58H161a1.75,1.75,0,0,1,1.59-1.89q0,2.5,3.39,6.52,0.26,6.63,1.47,6.64l-0.06,4.56L169.3,87l0.79-.58q0.07,1.33.68,1.33h0.43l0-1.32h0.35c0.29,0,.43.2,0.43,0.59l0.79-.58h0.69a30,30,0,0,1,3.7,15.06q0.89,11.35,1.72,13.71a7.08,7.08,0,0,0-.46,1.91l0.42,1.33-0.45,1.32q2.9,16.52,3.16,22.85c0,0.39-.12.59-0.36,0.58q2.43,18.87,2.41,20.34a1,1,0,0,0-.8,1.17l0.42,1.33-0.49,4v0.59a87.74,87.74,0,0,1,2.88,17.7H186l-0.39,3.23a9.44,9.44,0,0,1,.64,4h0.43q0-2.06.81-2c0,0.49.11,0.74,0.34,0.74A105.62,105.62,0,0,1,195,172.83q0.87,0,2.76-4.52l1.56,0,0-1.32q0-1.32-.76-1.33,0.11-7.95,5.65-18.91a2.41,2.41,0,0,1,1.14-.57q0.07,1.33.76,1.34c0-.49.13-0.73,0.36-0.73l-0.29-4.57,0-1.32,5.55-11.55q0-1.32,2-4.53h0.43l1.11,1.34q0.82-2.93,1.61-3.36h0.69l0,2.06,0.79-.73h0.78a38.9,38.9,0,0,1,1.74,12.39q-2.73,2.47-2.8,7.91,0,1.62,3.81,7.12,0,1.62,4.69,19,4.46,17.14,6.23,27.46l1.48,0q0.06-4.27,2.41-4.53,0-2.65,2.3-2.62l0-2.65-0.3-3.24h0.78l0-1.32h-0.78l0-1.91,0.77,0.75q0.78,0,.8-1.31v-0.74l-0.76-1.92,0-1.91q0-1.18,1.94-2l-0.33-1.18,0-3.38a1.69,1.69,0,0,0,1.94-1.89l0-1.91a1.12,1.12,0,0,1-1.2-1.34q0-1.18,2.4-3.94v-0.59H243.7l0-1.32q0.61,0,1.61-3.22c0.23,0,.35-0.19.36-0.58s-0.11-.74-0.34-0.74a39.67,39.67,0,0,1,2.85-11.73q0-3.53,6.2-33.76Q257,93.19,259,85V84.38l-1.09-2.66q1.36-4,2-3.95h0.35q0.78,0,.75,2.07h0.43l1.15-1.31,1.13,0q1.22,0,1.18,2.52l1.13,0,1.15-1.16h0.78v0.59a49,49,0,0,0-1.25,8.52L267,90.23q-1.91,12.48-2.43,12.48l0.33,1.18-1.18,4,0,3.24a2.46,2.46,0,0,0,1.1,1.93l1.59-1.89h0.78q1.13,0,2.61,5.92,0,3.39-4.12,15l-0.86,5.88v0.59q2.28,4.45,2.27,5.33,0,3.24-.83,3.23,0,1,1.86,3.85L265.22,162a45.59,45.59,0,0,0,1.12,7.23q0,2.5-4.08,12.31a15.08,15.08,0,0,1-2,7.77q-1,42.37-3.28,42.34h-0.35q-0.7,0-1.43-9.88h-0.35c0,0.49-.16.73-0.44,0.73l0.42,1.33a35.08,35.08,0,0,0-5.61,16.26l0.33,1.18q-1.48,0-2,5.86a8.78,8.78,0,0,1,.32,2.06,1,1,0,0,0-.8,1.17,1.26,1.26,0,0,1,.76,1.34l-2.75,3.94a10.84,10.84,0,0,1,.73,3.84q-1.78,3.21-2.9,15-2.71,1.14-2.79,7.17a7.05,7.05,0,0,0,.32,1.92q0,1.77-2,8.51l-0.32,23.54q-0.07,4.71-1.2,5.13h-0.35q-1.94-4.15-2.76-26.82,0.07-5.3-5.24-10.52l0-1.18a7.17,7.17,0,0,0,.46-2.05q-0.52,0-6.07-7.15h-0.43l0.87-6.61q0-.88-6.58-26.73l0-2.06h0.43l1.11,1.34q0.61,0,1.16-1.9l0-1.32a42,42,0,0,1-2.59-7.25,1.09,1.09,0,0,1-1.11-1.34c0-.39.12-0.59,0.36-0.58a8.62,8.62,0,0,1-.32-1.92h-0.35a7.11,7.11,0,0,1-.46,1.91,15.58,15.58,0,0,1,.73,4H215a136.23,136.23,0,0,1-4-15.07c-0.23,0-.34-0.25-0.34-0.74,0.23,0,.35-0.19.36-0.58l0.77,0.6q0.78,0,.8-1.31-0.61,0-1.53-2.52l-0.7.58q-1.94-4.59-2.28-4.59h-0.78q0,1.47-2.81,8.5L204,219.91q-0.14,9.86-.07,30.61-0.76,23.39-2.23,23.37-0.61,0-1.1-1.93l0.23-16.33q-2.69,0-2.49-15l0-1.91q-1.49.72-4,9.8c0,0.39.14,0.59,0.43,0.59q-0.8,7.2-2,7.18l0.33,1.33a26.68,26.68,0,0,0-2,5.71q-1.74,0-2.43,5.85l0.38,4q-1.82,0-2.82,9.09l-2.34,0q0,2.06-2.76,5.11h-0.35l-0.77-.6a2.44,2.44,0,0,1-1.24,1.9q-0.78,0-3.49-24.18,0-3.23-2.33-26.08L171,239v-0.74l-0.79.73q-0.7,0-4-21.69-1-5.9-5.45-45.7-1.47-6.79-3.55-26.1-1.8-8-3.46-26.1c-0.29,0-.43-0.25-0.42-0.74l0-3.24c0-.39.15-0.59,0.44-0.58l-0.42-1.33,0-3.24q-1.22,0-1.79-9.15l0.48-3.38q-1.33-16.8-1.3-19.44l0.41-4.7h0.43l0.77,0.75a82.78,82.78,0,0,1-.65-9.87q0.84-4,2-4.54h0.35L155,60.73Q155.08,59.41,155.77,59.42Zm20.07,195.28v0.59a8.79,8.79,0,0,1,.32,2.07h0.35l0-2.06Zm0.28,4.57v0.59l0.3,3.24h0.78l0-2.5q0-1.32-.76-1.34h-0.35Zm0.69,6.49v0.74a8.71,8.71,0,0,1,.32,1.92h0.43l0-2.65h-0.78Zm18.28-40.22a8.77,8.77,0,0,1,.32,2.06h0.43l0-2.06H195.1Zm17.08-10.07,0,1.18a14.87,14.87,0,0,1,1.41,4.58H214l0.79-.58Q214.62,215.49,212.18,215.46Zm7.29,26.15q0,1.91-.37,1.91a8.71,8.71,0,0,1,.32,1.92l1.56,0,0-1.18Q220.39,244.27,219.47,241.61Zm1.45,8.41,0,1.32a15,15,0,0,0,1.51,4H222a18.1,18.1,0,0,1,.7,5.9q0.61,0,1.17-2.63a19.26,19.26,0,0,0-.64-4,7.9,7.9,0,0,0,.38-2.5,0.67,0.67,0,0,1-.77-0.75l-0.79.73q-0.78,0-.75-2.07h-0.35Zm2.88-95.77h0.78l0.63,4.57h-0.35Q224,158.81,223.8,154.25Z" transform="translate(-150.91 -59.41)"/><path class="cls-1" d="M312.46,156.8l2.17,0q2.51,0.73,6.32,7.65c0,0.23.23,0.35,0.69,0.36a73.47,73.47,0,0,1,10.07.83,2.76,2.76,0,0,1,1.4-.33l1.48,0q4.25,0.15,4.25.75l0.7-.34a3.79,3.79,0,0,1,1.82.37l1.74-.32q8.93,1.51,8.9,3.34l0,1.82-0.71,1v0.35q4.51,0.06,6.4,2.26-1.48,6.76-2.61,6.74a2.77,2.77,0,0,0-1.39-.37l-0.36.69-3.2-.74q-0.26,0-2.18.32l-5.72-.77a8.64,8.64,0,0,0-1.43,2.85l0.34,0.7a2.93,2.93,0,0,0-.37,1.47v0.35q0,0.7,1,.71v0.35a2.68,2.68,0,0,0-1,.33l-0.78-.36q-3.22,0-3.24,2.13a23.51,23.51,0,0,0-.41,4.6v1q-0.1,7.38-.62,20.06-0.46,1.73-1.07,1.72-1.83,0-2.12-29.31c-1.22,0-1.82-.26-1.81-0.72l-1.74.32-2.17-.38a2.67,2.67,0,0,1-1,.33V187a0.67,0.67,0,0,0,.69.71,84.24,84.24,0,0,1-1.19,10.76H324.4l0-1.48h-0.35l0,1.48h0.35a2.68,2.68,0,0,0-.36,1,2.7,2.7,0,0,1,.33,1c-0.35,0-.82.48-1.41,1.46v0.35q1,0,1,.71l-1.07,1.81a4.08,4.08,0,0,1,1,2.53,2.69,2.69,0,0,1-.36,1l0.62,5.74q-0.7,0-1.18,10a0.67,0.67,0,0,0-.71.69L323,226l-0.37,1.39v1a1.54,1.54,0,0,0-1.06,1.12l1,1.4q-1.39,0-1.86,2.84l1.1,2.19v1l-1.13,0,0.41,1.83a3.86,3.86,0,0,1-1.16,2.42v0.43a3.3,3.3,0,0,1,1.13.36l-0.48,3.56V246l0.41,1.83a1.48,1.48,0,0,0-1.14,1v0.35l1.11,1.41,0,1.82,1.39,0q0,0.7-2.55,2.48l0,1.39h-0.35l0,1.13,0.7-.34a0.71,0.71,0,0,1,.77.71l-0.8,1a18.4,18.4,0,0,0,.3,3.22,0.31,0.31,0,0,1-.35.34l0.32,1.83-0.05,3.91q1.72,1.07,10.06,1.18a0.31,0.31,0,0,1,.35-0.34l1.72,1.15-1.08,2.42-2.51-.38-2.52.31a0.61,0.61,0,0,0-.69-0.7q-2.89,1.7-2.9,2.13l2.52,0.38,2.52,0,1,0.71,1.82,0q3.3,0,4.58,1.54a2.73,2.73,0,0,1,1.13-.33q0,0.7,1,.71v0.35l-1.82,0-0.69-.36a7.39,7.39,0,0,1-1.45,4.59,0.31,0.31,0,0,1,.34.35,2.32,2.32,0,0,1-1.14.42v0.35h0.78v0.69a12.34,12.34,0,0,0-2.88.66l-0.69-.36a19.63,19.63,0,0,0-2.18.32l-1.82-.37a2.67,2.67,0,0,1-1,.33l-0.69-.36q-2.61,0-3.27,3.86a0.31,0.31,0,0,1-.35.34,11.61,11.61,0,0,1,.64,4q-1,0-4.72,2-1.38-.54-1.37-1.06l0.06-4.6a0.66,0.66,0,0,0-.68-0.79q-1.83.41-1.84,1.1l0.32,1.74a26,26,0,0,1-3.93,1.77l-0.34-.7,0.05-3.65q-1.13,0-1.12-.36l-0.7.34a2.77,2.77,0,0,0-1.39-.37L305,289l0,3.56a19.83,19.83,0,0,1-1.19,4.24l-0.07,5.39q0,2.61-1.08,2.85H301.9q-1.07-4.18-1.94-17.14-7.65.24-11.47,0.19h-0.7a0.65,0.65,0,0,1-.68-0.79l0.36-.69A13.34,13.34,0,0,1,285.7,283l0.44-.69-0.4-2.18a5.94,5.94,0,0,1,2.18-.67v-1l-0.68-1.14,0-2.17q0-1.48,7.85-2a3.27,3.27,0,0,0,1.12.36v-0.35l-0.31-2.52q0.1-.86,2.47-2.49l2.52,0,0-1.74q0-2.08.43-5.73a2.69,2.69,0,0,1-.33-1.13h0.35l-0.34-.7v-0.35a9.47,9.47,0,0,1,1.17-3.2q-1,0-1.08-3.23l0.36-.69-0.66-2.88q0-2.87,1.52-2.85v-0.35q-1.55-1.06-2.09-6.11v-0.69q0.11-1.82.72-1.81L300.7,235v-0.43a2.76,2.76,0,0,1,.37-1.39l-0.67-1.4q0.39-3.12.4-4a2.68,2.68,0,0,0-.33-1q0-3.21,1.78-3.19l-0.68-1.05q0.52,0,1.5-1.8a0.66,0.66,0,0,0-.77-0.71,0.31,0.31,0,0,1-.35.34l-0.34-.7a2.94,2.94,0,0,1,1.48-.33l0-1.13h-0.35l-0.79.34-0.34-.7,0-1.82,1.56-6a3.25,3.25,0,0,1-.33-1.48,78.24,78.24,0,0,0,1.53-10,0.31,0.31,0,0,0-.34-0.35q0.41-4.34,1.1-4.33l-0.34-.7,0-2.52q0-3.21-3.52-3.26v-0.7h-0.69L300,187a2.29,2.29,0,0,1-.42-1H299.2a0.31,0.31,0,0,0-.35.34l-1.38-.71q0,0.44-2.19,1.36l-2.52,0q0,1.13-.71,1.12h-0.69l0.71-1.12v-0.35q-2.17,0-2.16-.72a3.55,3.55,0,0,1-1.74.32v1l1.39,0,0,1.13q-3.31.13-4.27,1l0.34,0.7v0.35q-0.69,0-6.1,1l-1.82,0a0.66,0.66,0,0,1-.68-0.79v-0.35l0.71-1a0.61,0.61,0,0,1-.69-0.7l1.15-1.46q-1.82-.46-1.81-1.07l0-1.39q0-.43,1.85-1.8l-0.42-.7v-0.35a2.48,2.48,0,0,1,.45-1.47q-1.08-3.4-1.08-3.58l1.51-2.15q3.92-.81,3.93-1.34,0.06-4.17,3.29-5.69,2.54-1.18,16.45-2.29v0.35a8.12,8.12,0,0,0,3.23-1l2.17,0.38a2.55,2.55,0,0,1,1.4-.68v-0.7a6.26,6.26,0,0,1,2.23-4.31A9.88,9.88,0,0,1,312.46,156.8ZM287,189.73l1.48,0v0.69l-1.48,0v-0.69Zm2.17,0,1.48,0v0.69l-1.48,0v-0.69Zm5,0.07h1v0.69h-1v-0.69Zm2.06-23.17a0.71,0.71,0,0,0,.77.71l1.39,0v-1Zm11.22,118.84-0.36.69v0.35l1.48,0v-0.69A3.25,3.25,0,0,1,307.47,285.49Zm5.87-35.37,0.69,0.36,0.37-1.38A1.49,1.49,0,0,0,313.35,250.13Zm0.16,13.3a2.76,2.76,0,0,1,.33,1.4,0.66,0.66,0,0,0,.79-0.68l0-1.13h-0.43Zm0.22-15.72v0.69h0.35a2.82,2.82,0,0,1,1.51-2.15V245.9h-0.35A2.09,2.09,0,0,0,313.73,247.7Zm5.85-8.52,0,1.39h0.35a2.67,2.67,0,0,1,.36-1Zm18.17,30.66a2.64,2.64,0,0,0,1,.36v0.69l-1.74.32-1.13,0a0.61,0.61,0,0,1-.69-0.7v-0.35Zm4-84.74h0.69l0,1.13h-0.69Zm7.22-6.68v0.69l0.7-.34a3.26,3.26,0,0,0,1.13.36v-0.35l-0.34-.7A2.93,2.93,0,0,1,349,178.42Z" transform="translate(-150.91 -59.41)"/><path class="cls-1" d="M424.87,164.17h1q0.61,0,2,4.2,5.9,0.08,5.83,5.64,0.43,0,.63,4.87a0.67,0.67,0,0,0-.71.69,30.2,30.2,0,0,0,1,4.53v0.7l-0.36.69a0.67,0.67,0,0,1,.69.7v0.35q0,0.35-2.46,2.05h-0.35l-0.69-.36-0.71,1h1v0.35q-1.76,1.8-1.77,2.41h-0.7v-0.35a2.68,2.68,0,0,0,.36-1,7.88,7.88,0,0,0-2.83,3.44,0.67,0.67,0,0,1,.69.7q-3.87,3.42-4.22,3.42a4.52,4.52,0,0,1-2.49,3.79q-3.68,33.75-4.65,35a0.61,0.61,0,0,1-.7.69h-0.7a0.61,0.61,0,0,1-.69-0.7q0.51-12,.61-18.76V217.9a0.31,0.31,0,0,1,.35-0.34l-0.34-.7,0-3.48a0.61,0.61,0,0,0-.68-0.7,13.88,13.88,0,0,1-2.47,2.75l0.34,0.7v0.35q-2.43,0-2.46,2.05h0.35l0.7-.34v0.35a7.41,7.41,0,0,1-2.12,2.75l0.34,0.7q-0.89,1.73-1.41,1.72h-0.7a18.36,18.36,0,0,1-4.79-5.28h-0.35a10.48,10.48,0,0,1-4.59,5.5h-0.35a21,21,0,0,1-4.79-5.28v-1q0-2.61,6-9.3,0-.52,3.56-5.86v-0.35a4.69,4.69,0,0,0-2.46,1.7l-0.7.34-0.69-.36q-1.4.5-1.4,1h0.35l0.7-.34,0.34,0.7a22.64,22.64,0,0,1-4.22,3.76q0,0.7-4.61,6.54a3.89,3.89,0,0,0-.38,2.08h0.35v0.35a0.61,0.61,0,0,1-.7.69,2.68,2.68,0,0,0-1-.36l0.34,0.7v0.35q0,1.39-2.45,1.36l0.34,0.7v0.35a5.22,5.22,0,0,1-1.79,3.45l0.34,0.7v1H384v0.7c-0.7,0-1,.1-1,0.33l0.34,0.7-0.72,1.73-0.69-.36h-0.35q0,0.7,1,.71a80.65,80.65,0,0,1-2.56,9h0.7V240q-1.39,0-1.43,3.11a19.77,19.77,0,0,1-1.1,4.5q0.18,5.74,6.77,13,10.32,7.79,19,10.69a37.4,37.4,0,0,0,5.19,1.81l6.26-.61,0.34,0.7a0.31,0.31,0,0,1-.35.34l0.34,0.7q-3.51,2.13-3.51,2.38a2.75,2.75,0,0,1,.33,1.39l-2.11,1.71h-0.35q-1.82,0-5.9-.43l-1.42,2.07a1.49,1.49,0,0,0,1,1.06l2.43,0q2,0,6.3-3l2.08,0a0.67,0.67,0,0,1,.69.7v0.35a3.55,3.55,0,0,1-.37,1.73l0.32,2.09q0,3.13-7.34,3a40.26,40.26,0,0,1-8.73,2.66l-0.69-.36a0.31,0.31,0,0,0-.35.34,46.58,46.58,0,0,1-9.7-1.87,18.19,18.19,0,0,1-3.13.3h-0.69l-1.73-.37a20.92,20.92,0,0,0-.76,4.51,2.76,2.76,0,0,1,.33,1.39,13.23,13.23,0,0,0-1.12,5.54l-0.12,8.69q0,0.52-1.41,1.37h-0.7a1.48,1.48,0,0,1-1-1.06q0.12-9-.39-21.9a40.86,40.86,0,0,1-13.71-14.09l-1-.71h-0.69a56.11,56.11,0,0,0-.78,6.24l0.33,1.4q-0.4,3.82-1.1,3.81l-1.39,0q-0.61,0-1-2.1a0.31,0.31,0,0,1,.35-0.34Q358,264,357.11,264q-3.82-.05-9-6,0.12-8.95,5.9-24.59a10.27,10.27,0,0,0,.38-2.43q-0.44,0-1.68-3.85a0.31,0.31,0,0,1-.34-0.35v-0.35q0.41-4.77,8.87-13.08h0.35v1l1.39,0q0-1,2.1-1.36V212.7q-1,0-1-.71l5-6.19q0-1.48,2.14-3.79L370.49,201q6.88-7.9,9.14-7.87a2.65,2.65,0,0,0,1,.36q4.21-2.63,4.24-5.15,0-1.3,11.27-11a3.13,3.13,0,0,0,3.16-2,49.75,49.75,0,0,0,8.42-5.79l2.79-1-0.68-1.05a6.79,6.79,0,0,0,2.45-1.36l0.69,0.36a1.48,1.48,0,0,1,1.06-1h0.7a1.84,1.84,0,0,1,2.06,2.11q1.74,0,5.6-2.7A3.59,3.59,0,0,0,424.87,164.17Zm-69.31,86.63v0.69h0.35a1.49,1.49,0,0,0,1.06-1l-0.69-.36A0.67,0.67,0,0,0,355.56,250.79Zm0.65,3.48v0.35h0.7v-1A0.67,0.67,0,0,0,356.2,254.28Zm1.77-2.41a2.68,2.68,0,0,1-.36,1l0.33,1.39a1.48,1.48,0,0,1-1.41,1.37v0.7a0.31,0.31,0,0,0,.34.35l-0.36.69,0,1.39a4.2,4.2,0,0,1,2.09-.32v-0.35l-0.3-3.48c0.93-.33,1.4-0.68,1.4-1v-0.35a1.23,1.23,0,0,1-1.37-1.41H358Zm-1.31-5.58,0,2.43H357l0.38-2.08Zm0.83,15.65a0.67,0.67,0,0,0,.68.7h0.35l-0.34-.7v-0.7l1.38,1.06a0.31,0.31,0,0,1,.35-0.34l1,2.1a2.8,2.8,0,0,0,1.76-1.37q0-.35-3.1-2.13Q357.5,261.25,357.49,261.94Zm2.55-8.31a1.49,1.49,0,0,0,1,1.06h0.35v-0.35a0.62,0.62,0,0,0-.69-0.7H360Zm3.07,4.21a3.55,3.55,0,0,1-.37,1.73,0.31,0.31,0,0,1,.34.35,2.76,2.76,0,0,1,1.4-.33,3.76,3.76,0,0,1-.67-1.75h-0.7Zm0.47-34.05v0.35a2.55,2.55,0,0,1,1.4-.68v-0.69Q363.58,223.28,363.57,223.8Zm4.21,47.67h0.7l-0.36.69v0.35h0.35q0.29-2.08.72-2.07a2.66,2.66,0,0,1-.33-1Q367.81,269.73,367.78,271.47ZM367.94,235l0,1.39a3.55,3.55,0,0,1,1.74-.32V235.7A2.77,2.77,0,0,1,367.94,235Zm0.37-1.73,0,1.39h0.35l0-1.39h-0.35Zm1.23,36.86a4,4,0,0,1-.73,2.77,0.67,0.67,0,0,0,.68.7h0.35a1.23,1.23,0,0,1,1.41-1.37v-0.35q-1.39,0-1.37-1.76h-0.35Zm2-45.15v0.35h0.69v-1A0.67,0.67,0,0,0,371.55,224.95Zm4-13.85a2.67,2.67,0,0,0-.36,1h-0.35l-1-.71h-0.35v0.35a2.55,2.55,0,0,1,1.38.71,3.18,3.18,0,0,1,1.75-1v-0.35h-1Zm-0.57,41v0.35l0.34,0.7a2.66,2.66,0,0,0-.36,1q0,0.87,2,4.89a2.75,2.75,0,0,1-.37,1.38,2.75,2.75,0,0,1,.33,1.39,0.31,0.31,0,0,0-.35.34l5.85,4.6h0.35v-0.7Zm3-42.71h0.7q1.4-.5,1.4-1h-1A1.49,1.49,0,0,0,378,209.4Zm3.24,17.07q0.69,0,1.44-3.8h-0.35Q381.58,222.66,381.26,226.47Zm0,50.39q0.67,2.09,1.36,2.1l-0.32-2.09h-1Zm0.83-60.46v0.69h1v-0.69h-1ZM388.91,277q0,0.7,2.42,1.08Q391.34,277.27,388.91,277Zm3.47,0.74,0.68,1.05a0.31,0.31,0,0,0-.35.34q4.85,0.94,4.85,1.46a6,6,0,0,1,2.45-1Q400,278.78,392.37,277.71Zm21.42-66.78a2.55,2.55,0,0,1-.71,1.38v0.35h0.35a4.2,4.2,0,0,1,1.07-1.72h-0.7Zm14.85-18.56H429v0.35a0.61,0.61,0,0,1-.7.69l-0.34-.7Z" transform="translate(-150.91 -59.41)"/><path class="cls-1" d="M463.28,143.59a6.75,6.75,0,0,1,3.07,4q4,0.05,5.47,6.77l0.78,0.36,2.73-2.66,1.22,0q3.87,3.18,3.86,3.53v0.78l-2.16,11.79h-0.78l-0.78-.44-0.37,2a0.74,0.74,0,0,0,.77.79l0-1.56h0.35a0.74,0.74,0,0,1,.77.79l-0.38,2h-0.78v-0.78h-0.78l0,1.13a4.49,4.49,0,0,1-1.25,2.76v0.78q0.31,2.35,1.18,2.36v-0.78H477l0.33,1.57q-0.38,2.34-1.16,2.33l0-2q-0.52,0-1.6,2.32a3.31,3.31,0,0,1,.33,1.22l1.23-.76,0.78,0.36-0.46,2,0.4,2.79-0.79.34h-0.43l-0.78-.36a4.67,4.67,0,0,0,.81-2.33l0-1.22a12.68,12.68,0,0,1-2.7.31l0.76,1.23-0.06,4.69a0.69,0.69,0,0,1-.79.77,0.35,0.35,0,0,0-.43-0.35l0,2.69-1.13,0-0.5,4.69q0.78,0,.76,1.23,0.87,0,17.07-15.84,0.78,0,6.75-4.25h0.78V179q-2.37,2-2.39,3.09v0.35h0.35q4.51-5.32,6.76-5.38l1.55,0.8,4.72-1.85v-0.78L506.4,174l0-1.56q2.08,0,4-2.72v-0.35H510l-0.79.34-0.42-.79q2-.49,2-1.54l1.56,0q4.22,2.4,5.07,4.07v0.78L517,174.56q0,2.08,2.75,2.38v0.35q-2.74,3.09-4,3.07v0.78h0.35l1.23-.76h0.35l0.78,0.45q0-.87,2-1.19v0.43l-5.54,4.62v0.43h0.35q8.51-6.22,10.68-6.2l0.78,0.45q0.88-.77,3.57-0.73V179h0.78q0-1.22,3.95-2.64l0.36-.78a0.69,0.69,0,0,1-.77-0.79v-0.43h0.78q0,0.52,1.62,2-1,0-2.82,2.65a31.92,31.92,0,0,0-6.78,6.25q-0.78,0-5.18,4.19-4.12,2.72-4.31,3.5a0.31,0.31,0,0,1,.34.35q-1.22,0-4.29,2.29l0,2a4.73,4.73,0,0,0-1.61,3.54q0.2,10.69.17,12.95a4.21,4.21,0,0,1-2.4,3.88q0,2.35-.81,2.33-1.22,0-1.92-5.5l0.07-5.13q0-2.08-.26-6.69h-0.78c0,0.81-.28,1.21-0.8,1.21h-0.78l-0.77-.44a7.47,7.47,0,0,1-3.63,4.64l-1.91,0,0.34,0.79a4.82,4.82,0,0,0-2.75,4.31h0.35v0.78l-1.22,0v-0.78a0.74,0.74,0,0,0-.79.77,2.81,2.81,0,0,1,.42,1.22,18.67,18.67,0,0,0-3.58,1.08l0.42,0.79-0.47,2.34a154.48,154.48,0,0,0,10.3,21.78,24.75,24.75,0,0,1,1.17,3.49h-0.78l-1.21-.8H500a10.25,10.25,0,0,0,3.07,4.39l-0.32-2,0-1.13h0.35a22.1,22.1,0,0,1,3,5.86,2.8,2.8,0,0,1-1.14.42q2.41,7.85,3.8,7.87v0.43l-0.36.78Q512,265,512.61,265l-0.36.86v0.35l0.76,1.23-0.46,1.9q1.56,0.2,1.55,1.24a3.25,3.25,0,0,0-.36,1.12l0.79-.34h0.35q5,7.11,5,8.67l2,0a70.42,70.42,0,0,1,5.36,8.33,1.71,1.71,0,0,1,1.11,1.15,3.27,3.27,0,0,0-.36,1.21,0.74,0.74,0,0,1,.77.79v0.35q-0.61,0-1.59,1.63l-2.34,0q0-1-7.81-7.23l-0.78-.36h-0.78v0.35l1.2,1.58v0.43H516.2q-3.56,0-4.66-2.41v-0.43q1.56,0,1.57-.76-1.56,0-1.87-3.15l-2.78,0q-0.78,0-.77-1.14h-0.78v0.35l1.19,2L508,288.17l0.77,1.14a0.81,0.81,0,0,0-.79.77l-0.08,5.56q-1.36,10.15-2.57,10.13-1.56,0-2.79-24.37-7-4.44-6.92-8.7-2.75-2.38-5.79-8.77-2.5-1.34-4.6-6.67a2.77,2.77,0,0,1-1.55-.8h-0.35q0.2,10.78.14,14.86-1.23,7-2.44,7-2.35,0-2.08-19.23a66.19,66.19,0,0,1-.68-7.4h0.35q0.07-5-4.54-11.1-2.31-2.9-2.3-3.59H471l0.42,0.79v0.43q-3.7,3.69-6.79,7.38l0.33,1.57a21.81,21.81,0,0,1-1.2,5.11l0.32,1.92q-0.84,4.16-.84,4.33a8.61,8.61,0,0,0,.74,2.7q-0.06,4.52-5.14,7.4a3.32,3.32,0,0,1,.33,1.22l0.79-.42,0.42,0.79-0.08,5.47q0,0.44-3.15,1.52l-0.48,3.56a2.89,2.89,0,0,1,.41,1.57q-1.05.68-4.07,5.07a0.35,0.35,0,0,1-.34-0.44q-0.61,0-2.37,2l-1.56,0a0.38,0.38,0,0,1-.43-0.44l-0.79.42h-0.35q-1.56-.54-1.52-3.58l0.13-9.38a23.44,23.44,0,0,1,.4-3.56l-0.34-.79a9.59,9.59,0,0,1,2-6.23l0-1.56a0.31,0.31,0,0,0-.35.34q-5.91-.08-5.85-4a14.45,14.45,0,0,1-.3-3.13l0.06-4.26a2.63,2.63,0,0,0-.41-1.57l0.8-1.64a21.81,21.81,0,0,1-.3-3.48,3,3,0,0,1,1.92-.75l0-1.56q-1.91-.37-1.9-1.24l1.61-3.45-0.42-.79,0.46-2q-0.78,0-.81,2.33h-0.78l0-2.78a0.74,0.74,0,0,1,.79-0.77,0.74,0.74,0,0,0,.77.79H444q0-1,1.59-1.89v-0.43a3.06,3.06,0,0,1-2.32-1.6l0.34,0.79a0.69,0.69,0,0,1-.79.77h-0.78a131.91,131.91,0,0,1,1.81-17.61q0.78,0,.8-1.55a0.69,0.69,0,0,1-.77-0.79q0-.78,1.23-0.76l-0.77-1.14,0-2,2.37-1.53v-0.43q-0.65-3-1.52-3.15a32.34,32.34,0,0,1,1.64-5.8l0.78,0.36H448v-0.35L446.47,197q2.37-2,2.38-2.66c-0.52,0-.78-0.42-0.76-1.23q-0.78,0-.8,1.21h-0.78l0-2.35a6.59,6.59,0,0,1,.82-3.12,0.35,0.35,0,0,1-.34-0.44,3.28,3.28,0,0,1,1.13-.33l0-1.22-0.34-.79q0.87-.07,2-3.54-1.91-.46-1.9-1.16V181a0.31,0.31,0,0,1,.35-0.34l-0.34-.79,0-2.78h0.35l0.78,0.44,0.44-.78a0.69,0.69,0,0,1-.77-0.79v-0.78l0.38-2-0.78-.36q0.09-6.69,2.87-6.65,0-.61,3.16-2.3A64.41,64.41,0,0,1,457,149l-0.34-.79Q459.46,143.53,463.28,143.59Zm-21.5,110.31a2.81,2.81,0,0,1,.42,1.22H443v-0.43a2.8,2.8,0,0,1-.42-1.14Zm5.17-3.06a9.2,9.2,0,0,1-1.26,3.11v0.43q0.52,0,2-2v-0.78A0.69,0.69,0,0,0,446.95,250.84Zm59.55,3.6,1.13,0a0.69,0.69,0,0,1-.79.77Zm2.74,2.73,0.34,0.79v0.43h-0.35a0.69,0.69,0,0,1-.77-0.79Zm2.86,19.68v0.35a0.74,0.74,0,0,0,.77.79h0.35l0-1.13Zm2.5-10.91,0.34,0.79-0.79.34H513.8V266.7A0.74,0.74,0,0,1,514.6,265.93Z" transform="translate(-150.91 -59.41)"/><path class="cls-1" d="M550.9,159q5.34,3,5.25,9.72l0,2.43h1A17.74,17.74,0,0,1,559,164.8l0.78,0.36a2.55,2.55,0,0,1,1.4-.68,7.34,7.34,0,0,1,4.54,5q2.08,0,5.74-.27l4.25,0.41a8.2,8.2,0,0,1,2.88-1q8.59,0.82,12.15.86a6.28,6.28,0,0,0,4.62-1.41q2.08,0,2.77,7.16a12.92,12.92,0,0,1-1.18,3.55,0.35,0.35,0,0,1,.34.44,16.69,16.69,0,0,1-4.27.64l0.34,0.7a2.66,2.66,0,0,0-.36,1,0.67,0.67,0,0,1,.68.7,3.29,3.29,0,0,0-.36,1.12l5.37,1.46v0.69a4.67,4.67,0,0,0-4.29,2.46,12.69,12.69,0,0,0-3.22.3A2.72,2.72,0,0,0,590,188c0,0.46-.59.69-1.75,0.67V189l2.17,0.46v0.69l-1.48,0a75.86,75.86,0,0,0-8.87.92v1l-4.69-.06L575.33,196q-0.07,5.39-1.81,5.36-1,0-1.41-5l0.36-.78q-0.65-3.57-1-3.58-7-.1-7.15,2.07a11.23,11.23,0,0,0-1.81,4.93q0.62,5.74.6,7.13a13.85,13.85,0,0,0-.74,3.2l0.34,0.79a53.88,53.88,0,0,0-1.58,7.1,2.67,2.67,0,0,1,.33,1l-0.36.69q0.41,1.83,1.1,1.84l8.17,0.11a6.24,6.24,0,0,1,4.63-1.76q14.07,0.19,15.69,2.74l-0.71,1q1.73,0,2,5.41,3.2,0.74,3.55.74v0.35l-0.36.69a0.67,0.67,0,0,1,.69.7,6.2,6.2,0,0,1-2.89,1.44l1.11,1.41V234q-1.48,0-1.5,1.8a10.33,10.33,0,0,1-1.39.33V235.8a0.31,0.31,0,0,0-.35.34l-1.82-.37a22.46,22.46,0,0,0-3.23,1,2.7,2.7,0,0,0-1-.36l-0.36.69a4,4,0,0,1,2.51.73l1.74,0v0.78q-1.39,0-3.59,2l-5.65-.08v0.69a0.71,0.71,0,0,0,.68.79l1.74,0v0.35q0,0.7-5.66,1.31a3.28,3.28,0,0,0-1.47-.37q-2.44.4-2.54,7.44l-1.14.68h-0.35q-0.52,0-1.37-1.41l0-2.87L569,245.48q-5.39.27-7.91,0.24l-1.39,0-1.37-1.15h-0.43q0,1.82-.72,1.81l-0.69-.36,0,2.08,1.05-.68h0.35l0,1.48a0.61,0.61,0,0,1-.71.69l-0.69-.36-0.36.69L556,253.82q0.69,0,.71-1.38h0.7q-0.23,3.91-.75,3.9a2.37,2.37,0,0,0-1.75,1,0.31,0.31,0,0,0-.34-0.35l-0.47,2.51v1q0.78,0,.8-1h0.35l0,1.39q-1.85,1.8-2.54,1.79v0.35a2.55,2.55,0,0,1,1.38.71,0.78,0.78,0,0,1,.79-0.68q0.52,0,1.37,1.41v0.35q-1.39,0-1.4.68l0,1.13,2.08,0.72,14.62-1.62,0.78,0.36a2.67,2.67,0,0,1,1-.33,1.66,1.66,0,0,0,1,1.14l3.22-.3q2.17,0.38,2.16,1.07l-0.71,1q1.91,0,2.73,3.95a0.31,0.31,0,0,1,.34.35,8.62,8.62,0,0,0,1.48-.33,19.41,19.41,0,0,0,2.17.38l0.7-.34a6.05,6.05,0,0,0,2.07,1.16v0.69l-0.71,1a12.75,12.75,0,0,0,5.36,2.25l3.21,0q2,2.11,2.4,2.12L598,281.5q0.87,0,2.11,4.63l-2.89,1.35q-9.31.65-17.47,0.54v0.35l4.26,0.06v0.35a0.61,0.61,0,0,1-.71.69l-3.91-.05q-2.6,0-2.88,1l0,3.21a2.46,2.46,0,0,1-1.42,2.5H574.3q-1-.27-1-2.88l0-2.52q0-.69-1-0.71a57.31,57.31,0,0,0-13.58,2l-1.82-.37h-0.35a36.84,36.84,0,0,0-5,.63l-0.09,6.43-0.37,2.08a0.31,0.31,0,0,0,.34.35q-0.56,8.94-2.3,8.92-0.87,0-1.33-3.93l0.06-4.6a2.94,2.94,0,0,1,.37-1.47q-0.35,0-.59-7.48-6.08-.08-6-4.69-2-4.55-5.23-5.46-0.7,0-1.78-3.24l0-3.56q0.3-3.12,1.09-3.2l-0.32-2.09q1.13-24.92,2.17-24.91l-0.34-.79,0-3.56a2.75,2.75,0,0,1,.37-1.39,0.31,0.31,0,0,0-.34-0.35l0.4-3.56,0-2.87q1.39,0,2.49-3.88-2.41-1.42-2.41-1.86l0.08-6a3.29,3.29,0,0,0-.33-1.48q1-6,1.47-6l-0.33-1.48q1.23-7.45,2.66-10a2.71,2.71,0,0,0-.33-1q2.6-12,2.61-13.17c-0.46,0-.69-0.36-0.68-1.05q2-2.93,2.7-12.82,0.61,0,1.51-8.84,1.18-3.89,1.88-4.23l-0.34-.79Q548.81,159.71,550.9,159Zm-12.41,74.64,0,2.52h0.35a4.76,4.76,0,0,1,.38-2.17Zm0.12-8.51v0.69a0.67,0.67,0,0,0,.68.71l0.36-.69,0-1.39h-0.35A0.67,0.67,0,0,0,538.61,225.08Zm14.75,39.39a0.67,0.67,0,0,0,.68.7h0.43a0.65,0.65,0,0,0-.77-0.71h-0.35Zm2.3-9.61A2.74,2.74,0,0,1,556,256l0.7-.43a2.67,2.67,0,0,1-.33-1Zm1.19-11-0.36.69,0.69,0.36,0.36-.69Zm-0.09,6.78h0.7v1h-0.7v-1Zm14.08,37.64v0.69l1.83-.32v-0.35Zm5.34-47.37a0.67,0.67,0,0,0,.68.7,0.61,0.61,0,0,0,.71-0.69Zm9.68,47.57,2.78,0v0.69l-2.78,0v-0.69Z" transform="translate(-150.91 -59.41)"/><path class="cls-1" d="M633.7,164.53h0.7l2.63,4.12-2.35,19.6a2.68,2.68,0,0,1,.33,1h0.35a4.76,4.76,0,0,0,2.75-4.39q1,0,2.48-3.7l0.61-.34h0.35a21.33,21.33,0,0,1,4,6.83,0.31,0.31,0,0,1,.34.35q-2.33,5.36-2.77,5.35-2.9,14.82-3.6,15.5a2.54,2.54,0,0,1-1.4.68v1h0.35l1.05-.68a0.31,0.31,0,0,0,.34.35,7.35,7.35,0,0,1-1.42,2.33,4.82,4.82,0,0,1,1,2.71q-0.22,3.38-1.09,3.37a0.58,0.58,0,0,0-.69-0.62,4.59,4.59,0,0,0-1.33,2q3,5.17,3,5.78,0,1-1.8,4.75a0.31,0.31,0,0,0,.34.35l-0.37,1.65,0,1.65a11.33,11.33,0,0,0,.31,2.78q-0.77,5.38-1.38,5.37l0.32,2a39.59,39.59,0,0,1-.41,4.43l0.32,2a2.67,2.67,0,0,1-1,.33l0,1.74a0.64,0.64,0,0,0-.7.6l0,2.78-0.37,2a2.71,2.71,0,0,1,.33,1l-0.7.34-1.64-.37-1.06,1.29q0.69,0,.68,1.05l2,0,0,1.3h0.35q1.13-.33,3.44-3.6,0.69,0,3.43-3,2.28-1.79,6.19-7.73h0.35a5.91,5.91,0,0,0,2.68,1.08h0.35a78.23,78.23,0,0,0,11.45-17.83,28.29,28.29,0,0,0,1.4-7,2.69,2.69,0,0,0-.33-1,41.24,41.24,0,0,0,.41-4.77v-0.35a3.34,3.34,0,0,0-.33-1.66l0.37-1.65q0.19-13.9-2.85-13.94-5.06-5.46-6.35-5.47v0.26Q653.27,220,652.23,220h-0.35l-1.37-1.06q0.42-5.55.46-8.42l0.08-6.08q0.06-4.26-.2-10.52a2.73,2.73,0,0,0,.36-1,17.36,17.36,0,0,1-1.25-4.1l0.36-.69a0.61,0.61,0,0,1-.68-0.7l0.06-4.69a0.31,0.31,0,0,1,.35-0.34q-2.29-4.29-6.63-11l0.37-1.65a19,19,0,0,0-.66-2.7v-1q0-.52,1.67-1.37h0.35q9.79,8.65,13.35,14.43a24.19,24.19,0,0,1,14.35,11.32l8.61,18.1q5.27,8.67,5.23,11.54v0.7l-0.71,1a6.39,6.39,0,0,1-2-1.42l-1.39,0a28,28,0,0,1,1.29,7.49l-0.37,1.65q0.69,0,1,2.71a4.34,4.34,0,0,0-3.42,2,21.52,21.52,0,0,0-6.88,7.29q-0.44,0-1.77,2.06v0.69q0,0.26,1.33,4.36l0,1.39q0,0.61-3.05.91-2.73,2.66-2.74,3l0,2.43q-1.87,9.88-4.15,30l-0.7.34h-0.35a0.61,0.61,0,0,1-.69-0.7l0.06-4.34a2.75,2.75,0,0,1,.37-1.38,2.58,2.58,0,0,1-.33-1.31l0-2.78q0-.26.35-0.26-0.32-2.09-.58-2.09a78.32,78.32,0,0,0,.77-11.46v-0.69l-0.34-.7q-1.31.5-1.32,1l-0.69-.36h-0.35l0,1.39a14.28,14.28,0,0,1-4.73,3,19.7,19.7,0,0,0-3.12,5.34q-2.26,0-4.47,3-0.44,0-2,3l-0.7.34a0.31,0.31,0,0,0-.34-0.35L645,279q-2.72,1.7-2.73,2.4c0.64,0,1,.25.95,0.71q-0.19,1-2.71.92v0.35h0.7v0.35q-2.37,1.62-2.37,2h0.35a3.89,3.89,0,0,0-.38,2.08,0.67,0.67,0,0,1,.69.7q0,0.44-2.47,2.31l-1.3,0-1.73-.37q-3.87,3.6-6.14,4.35A122.52,122.52,0,0,1,626,307.87q-0.06,4.43-1.1,4.42h-0.35a1.48,1.48,0,0,1-1-1.06l0-2a20.31,20.31,0,0,0-.52-6.09,0.31,0.31,0,0,1,.35-0.34q-0.29-4-.27-5.74l0-3-0.32-2.09,0.36-.6q0-2.87-5.4-5.55-1-6.44-1.91-6.46-1.91,0-3.32-5.08l0-1.39a22.89,22.89,0,0,1,.77-5.72l-0.32-2h0.35l-0.34-.7,0-3.39a2.75,2.75,0,0,1,.37-1.39,2.31,2.31,0,0,1-.33-1.31,0.61,0.61,0,0,0,.7-0.69,2.64,2.64,0,0,1-.33-1h0.35L613.5,256v-1a0.31,0.31,0,0,1-.34-0.35l0.37-2a18.16,18.16,0,0,1-.3-3.39v-0.35a0.31,0.31,0,0,1,.35-0.34l-0.34-.7,0.06-4.08a23.23,23.23,0,0,1,1.12-5.72l-0.34-.7c0-.17.12-0.26,0.35-0.26l-0.32-1.74V235q0-.43.66-3.73a13.76,13.76,0,0,0-.22-2.7q0.31-3.73,1.35-3.72l1.38,1.06h0.35a2.64,2.64,0,0,1,.63-1.64v-1h-0.61a3.39,3.39,0,0,1-2.44.66,0.31,0.31,0,0,0-.34-0.35q0.15-10.6,3.29-12.12l0-1.74h1l0,1.74,1.05-.68-0.34-.7,0.72-1.64a2.69,2.69,0,0,0-1-.36v-1a1.23,1.23,0,0,0,1.41-1.37l-1-.62a2.15,2.15,0,0,0-.36,1h-0.7v-0.69l-1,.68h-0.35v-0.69q0-2.87,2.83-10,1.13,0,1.33-2.07h0.35a2.65,2.65,0,0,0,1,.36l0.36-.69v-0.26l-0.7.25h-0.7l0-1.3a78.28,78.28,0,0,0,3.58-13.85H626a16.07,16.07,0,0,1-.31-2.7q0-1.3,2.49-4.4l0.6,0.36a1.44,1.44,0,0,0,1.06-.94,2.76,2.76,0,0,0-.33-1.39q0.92-3.72,1.44-3.72l2,0.38A0.67,0.67,0,0,1,633.7,164.53ZM616.78,239.1v1h0.35a0.61,0.61,0,0,0,.71-0.69v-0.35h-1Zm0.25-17.9v0.26a1.49,1.49,0,0,0,1,1.06,0.58,0.58,0,0,0,.62-0.69,0.54,0.54,0,0,0-.6-0.62h-1Zm0.19,11.12,0.69,0.36,0.62-1L618.2,230Q617.51,230,617.22,232.33Zm0.87-12.85v0.69l1.3,0V219.5Zm14.09,30.34v0.61l1.39,0a0.58,0.58,0,0,0-.69-0.62h-0.7Zm0.6,6.7a2.68,2.68,0,0,1-.36,1h0.7a0.58,0.58,0,0,0,.62-0.69l-0.6-.36h-0.35Zm6.79-77a0.64,0.64,0,0,1,.69.62v0.7a1.48,1.48,0,0,1-1.06,1,0.61,0.61,0,0,1-.68-0.7,0.61,0.61,0,0,0,.7-0.69l-0.34-.61Z" transform="translate(-150.91 -59.41)"/><path class="cls-1" d="M260.28,289.17h0.61a22.44,22.44,0,0,1,3.81,13.46,21.09,21.09,0,0,0,5.1-4.26,5.89,5.89,0,0,0,2.27-.53L272.4,299l-0.63,1.53,2.61,0a10.75,10.75,0,0,0,3-.52q0.61,0,8.52,6a16.88,16.88,0,0,1,4,1.17l1.66-.54a27.41,27.41,0,0,0,4.94.63h1a15.48,15.48,0,0,1,8.83,8.64q6.46,16.43,6.36,24.11a6.28,6.28,0,0,1-.37,1.67q0.53,11.6,1.38,19.71l0.7-.41h0.26v0.42q-3.1,10.57-3.12,11.83,0,27.52-.2,39.95l-0.7.55h-0.61q-0.52,0-1-1.55,0-3.35-.65-21.94-4.48,10.14-7.81,12.18c0-.37-0.11-0.56-0.34-0.56a32,32,0,0,0,1-4.18h-0.61q0,2.1-.72,2.09h-0.35l-0.6-.57c0,0.75-.13,1.12-0.36,1.11l0.33,1q0,0.56-2.4,3.74l-1.64-.58a60.86,60.86,0,0,1-4.45,7.48,5,5,0,0,1,.33,1.54l-1.06,1.1-2.26,0c-0.23,0-.34-0.19-0.34-0.56q-3.66,1.07-3.69,3.16,0.17,6.29.14,9.08l-0.21,14.94q-0.18,13-1.84,13.94h-0.35q-0.78,0-1.48-12.31-0.42-1.12-1.69-22.51h-0.26a13.08,13.08,0,0,1-2,.53q-5.39-.07-7.25-3.31a11.05,11.05,0,0,1-2.63-4.37q-1,0-2.31-2.69a6.33,6.33,0,0,1-.37,1.67q0.69,0,1.61,3.24v0.42l-0.3,2.65a0.92,0.92,0,0,1,.94,1.13A9.36,9.36,0,0,1,263,426q-0.61,0-.59-1.54,0-.42.3-3.21l-0.25-1.12,0.3-3.21-0.6-.57a36.45,36.45,0,0,1-.43,5.86,26.55,26.55,0,0,1,.29,4.33h-0.35c0,0.37.11,0.56,0.34,0.56l-0.38,2.65,0,2.1h-1l0,1.68,0.62-.55h0.35l0.27,5.31v0.56l-0.38,2.65h-0.69l0-1.12H260.2l-0.76,4.88,0,2.1q1,0,1.23,5.32h0.69l0,2.23q-0.7,0-.67-1.68h-0.26L260,455.8l-0.05,3.77q0,1.12-1.67,1.09v1l0.58,1.68q-0.41,4.6-.43,5.86c0.23,0,.35.19,0.34,0.56a0.85,0.85,0,0,0-.62,1,0.52,0.52,0,0,1,.6.57,10.3,10.3,0,0,0-.65,3.2l0,2.65q0,1.68.24,1.68l-0.3,2.65-0.11,8,0.22,3.22a4.26,4.26,0,0,1-2,3.18q-0.61,0-.56-3.22h-0.7l0,3.21h-0.35l-0.94-1.13c0,0.75-.25,1.11-0.71,1.11l0.33,1.12v0.56h-0.35l-0.6-.57-0.36,1v0.56a1.84,1.84,0,0,1,1.64,1.14,2.17,2.17,0,0,1,1-.55c0,0.75.27,1.12,0.68,1.13l-0.77,5.3,0.33,1.12-0.36,1,0.31,2.66-1.67,1.1-0.69-.57a1.72,1.72,0,0,1-1,.55l-1.59-4.35-0.7.55-1.3,0q-1,0-.92-8.53l0.36-1.11a12.54,12.54,0,0,1-.56-3.22l0.27-1a8.19,8.19,0,0,0-.24-1.68q0-1.12,1.13-12.28a5.48,5.48,0,0,1-.32-2.1,6.21,6.21,0,0,0,.38-2.09q-0.52,0-2.89-4.37l0,1.12h-0.7a7.5,7.5,0,0,0-.66-2.66,6.33,6.33,0,0,0,.37-1.67q-1,0-1.55-7l0-3.07,1.12-11.86-0.22-3.22q0.8-13.68.89-20.24l-0.57-2.66q0.92-3.9,2.38-52.91,2.89-52.34,5-52.31,2.12-9,4.47-9v-0.42l-0.58-1.68q2.43,0,3.06-7.36,0.61,0,2.43-6.39v-0.56ZM242.65,483.92h0.61l-0.05,3.77,1.06-1.1h0.35l-0.05,3.77q0,1-.71,1h-0.35v-0.42a6.32,6.32,0,0,0,.37-1.67l-0.69-.57,0,2.65h-0.61Zm0.33-5.3h0.7l-0.06,4.19h-0.7ZM243.72,501a1,1,0,0,1,.68,1.13q0,1.12-.71,1.11L243,501.52Zm-0.33-26.12h0.69l0,2.09h-0.69ZM245,479.2a0.34,0.34,0,0,0,.34.42q-0.42,4.88-1,4.87L244,483.38Q244,479.33,245,479.2Zm15.78-35.68h0.69l0.32,2.24-0.7.41-0.33-1Zm1.28,8.12h1l0,2.1c0,0.75-.25,1.11-0.71,1.11H262Zm0.47-15.5h1l0,3.21q0,1-.71,1t-0.59-1v-0.56Zm-0.25-25.7,0,3.21h0.61l-0.22-3.22h-0.35Zm0.18,31h0.7l0,1.54h-0.7ZM262.62,428h0.7l0.32,2.24-0.7.41-0.33-1Zm1.27,9.1h1l0,1.12c0,0.75-.22,1.11-0.62,1.11h-0.35Zm11.41-84.21H275q-0.87,0-1.81-13.43h-0.35l-4.77,5.94q-1.91,0-2.75,10.58-1,0-1.06,1.52,1.42,16.64,1.32,24.18l0.69,0.43q8.25,0.11,21.44-10.88,1-9.62,1.78-9.61h0.35l0,1.68h0.26q1.54-10.59,1.56-12.27V350.5L291,351h-0.35l0.81-8.51-1.26-3.23L283.86,337a18.56,18.56,0,0,1-3.32,1.07q0-1.12-.68-1.13l-1.65,0q-0.7,0-1.86,14.92Zm-5.95,47a26.64,26.64,0,0,0-3.64-.61l0,2.09q0.24,1.68,2.67,1.71l1.3,0A1.08,1.08,0,0,1,271,402c0,0.75.1,1.12,0.33,1.12q6-1.31,6.06-4.81H277A16,16,0,0,1,269.35,399.92Zm8.58-67.77-0.36,1.11a0.34,0.34,0,0,1,.34.42,2.25,2.25,0,0,1,1.31-.4v-0.56Zm11.55,31.73,0,2.65h0.35l0-2.65h-0.35Zm0.47-8.65h0.61l0,2.65c0,0.75-.22,1.12-0.62,1.11Z" transform="translate(-150.91 -59.41)"/><path class="cls-1" d="M349.16,377.87a0.31,0.31,0,0,1,.34.35l0.7-.34h0.61q2,1.07,6,5.82a6.26,6.26,0,0,0-1.43,3q3.24,4.3,4.37,4.4a2.91,2.91,0,0,0,.93,1.66v1l-1.7,3.63q2,3.16,7,25.64,1.44,2.8,9.72,26.29,0.85,1.14,2.94,7.43,0.6,0.53,2.87,5.77a0.58,0.58,0,0,1-.62.69,0.31,0.31,0,0,0-.34-0.35,2.69,2.69,0,0,1-2.36,1.27q3.82,12.65,7.15,17.21-1.75.41-1.75,1,3.3,6.3,3.28,8.13l-0.7.34h-1q-2-.72-4.95-6.5-2,.41-2,1.71t3.56,6.74a2.2,2.2,0,0,0,.68,1.31v0.7q-1,0-1.05.68l2.6,7.07a7.22,7.22,0,0,1-2.35.66l0,2.35a1.52,1.52,0,0,1-1.05.94h-0.26q-3.65-.05-5.3-6.07h-0.35l-0.36.6-0.13,9.12-0.74,2.94q0,2.69.21,9.82-0.54,1.3-1,1.29a20.09,20.09,0,0,1-2-8.11h0.35l-0.34-.61,0-1.39a0.31,0.31,0,0,1,.35-0.34q-1.08-22.52-2.64-22.54-5.92-11.9-10.12-22.29l-7.38-.1v0.35l0.59,1.05a0.63,0.63,0,0,0-.62.69l-0.14,10q-0.38,8.42-1.85,8.4-1,0-1.21-6.36-1,0-1-3.75l0.11-8.08a0.54,0.54,0,0,0-.6-0.62l-3,0a5,5,0,0,0-3.05.91l-2,0a6.41,6.41,0,0,0-4-1.71V469h1V468.3a5.09,5.09,0,0,1-2-.29q-1,1.2-2.44,7a31.09,31.09,0,0,0-4.51,12.36q-0.35,0-1.76,2l-2-.37q-1.24,1.63-1.67,1.63l0.33,1.39q-1.72,5-2.76,5-2,.58-2.08,6a18.47,18.47,0,0,1-4.44.63q0-.61-4.67-1.37-0.41-1.39-.94-1.4a0.31,0.31,0,0,1-.35.34l-0.34-.7q2.51-12,4.86-12a11.45,11.45,0,0,1,2.75-4.31c0-.23-0.1-1.13-0.31-2.7q1.3,0,1.72-5,1,0,3.89-11a0.31,0.31,0,0,0,.35-0.34q0-1.13-3.68-3.79v-1q3.49-7.16,3.53-10.38l4.12-9q0-.52-0.28-4.78,4.9-8.62,4.93-10.62a3.33,3.33,0,0,0,.27-1c-0.17,0-.26-0.12-0.26-0.35q1.22-.16,6.56-15.64l0.7-.34h1l1.09-3.72q-0.7,0-1.43,2.67H335l-0.34-.61q8.62-20.39,11.75-26.77l2-1.28A0.67,0.67,0,0,1,349.16,377.87Zm-14.5,31.08a2.76,2.76,0,0,1-.36,1H335v-1h-0.35Zm12,29.36q0,0.61-5.57,13.3h0.35a75.82,75.82,0,0,1,7.41-1.9,4.18,4.18,0,0,1,2.36-1.27,42.19,42.19,0,0,1-3.94-10.13h-0.61Zm-1.81,30.82v0.7l1.39,0v-0.7Zm33.77-10.22a2.63,2.63,0,0,1,.25,1h0.7v-0.35a0.58,0.58,0,0,0-.69-0.62h-0.26Z" transform="translate(-150.91 -59.41)"/><path class="cls-1" d="M417.17,365.78a1.74,1.74,0,0,1,1.71,1.85h0.7v-0.78h0.78q0.69,0,1.68,4.37-0.71.95-1.48,6.41a6.7,6.7,0,0,0,1.79,2.54,26.48,26.48,0,0,0-.84,4.33,3.27,3.27,0,0,0,1.12.36,40.14,40.14,0,0,0,7.17-3.46,18.71,18.71,0,0,0,4-.38,3.29,3.29,0,0,1,.33,1.13h0.7a2.92,2.92,0,0,1,.71-1.47l1.82,0.37q6.61-.6,7.23-1.29,11.79,1.38,17.13,4.93,9.13,5.34,9.18,8.38,6.74,8.69,6.66,14.78c0.23,0,.34.24,0.34,0.7q-0.34,5.38-1.55,5.37l0.33,1.48-2.29,8.22q-1,.42-2.13,3.19a4.36,4.36,0,0,1-2.53,1,0.31,0.31,0,0,0-.34-0.35q-2.47,2.4-2.56,3.18a0.31,0.31,0,0,1,.34.35,0.67,0.67,0,0,0-.71.69v0.43l0.68,1.05-0.7.34h-0.35v-0.7h-0.43Q462.11,434,462,443.55q-0.4,3.73-.46,8.25a2.7,2.7,0,0,1-1.5,1.72,6.67,6.67,0,0,1-1.35-3.23l0-2.87q0.09-6.78-1.73-6.8-2.62.75-8.68,5.61,0,0.87-3.94,2.47,0,0.78-2.55,2.05a3.61,3.61,0,0,1-1.51,2.15l6,9-1.13,0q0-1-5.63-7.55L438.9,454v0.69q9.32,10.73,10.92,14.83,1.89,1.59,4.16,7.27,1.55,1.06,4.23,8.31v0.35l-0.36.69q1,0,1.35,2.89a2.93,2.93,0,0,0-.37,1.47q2.43,0,3.91,6.48,3.88,2.4,3.83,6.13a0.67,0.67,0,0,1,.69.7v0.43h-1l0.34,0.7v0.35l-0.36.69q1.39,0.19,1.37,1.15-1.39.15-1.43,2.85,1,0,3.52,2.92h0.7c0-1,.28-1.47.8-1.47a3.67,3.67,0,0,0,1.35,2.89l-0.36.69a2,2,0,0,0,2.15,1.51,4.5,4.5,0,0,1-.72,2.16q1.13,0,3.18,2.56l0.7-.42h0.7v0.43a2.66,2.66,0,0,0-.36,1q0.52,0,1.46,1.41v0.43a8.61,8.61,0,0,0-2.89,1.35,45,45,0,0,0,4.87,6.15q0,1.3,1.77,3.67a1.49,1.49,0,0,1-1.06,1h-0.35q-1.46-1.76-5.35-2.94a37.19,37.19,0,0,1-7.1-8,8.73,8.73,0,0,1-2.51-.73l-0.36.69q1,0,1,.71l0,1.13a17.53,17.53,0,0,1-4,4.2q0-.7-2.8-4.64a5.72,5.72,0,0,0-.66-2.53l-0.79.34a2.54,2.54,0,0,0-1.38-.71v-0.78H458l0.69,0.36v-0.69q0-.7-6.31-8.69a2.93,2.93,0,0,1-1.47-.72l-0.16,11.47,0.4,2.18q-0.53,6.77-1.57,6.75a8.17,8.17,0,0,1-2.78-6.12v-1q0.26-19-1.91-19.05-1.37-8.27-2.41-8.29a0.66,0.66,0,0,0,.79-0.68q0-.61-1.45-1.84l0.36-.69a3.28,3.28,0,0,1-.33-1.13l-1.82,0a2.34,2.34,0,0,1-1-1.4h-1l-0.79.34a3,3,0,0,1-.67-2.18h0.7q0-1.22-2.38-3.94l0.36-.78-1.13,0,0.36-.69q-0.41-1.48-3.5-4.31,0-.87-3.14-5.43a4.23,4.23,0,0,0-1.79-2.89l0.36-.78a7,7,0,0,1-3.48-6.13q-2.85-1.08-2.82-3.6h-0.7a0.67,0.67,0,0,0-.7.69v0.35a2.06,2.06,0,0,1,1.72,1.5l0,3.21q-0.09,6.43-1.48,6.41a1.54,1.54,0,0,0-1.12-1.06h-0.35l0.32,1.83,0,3.21-0.71,1a6.63,6.63,0,0,0,1.75,5.06q-0.55,1.82-1.58,7.19h-0.7q0,0.26-.47,8.6-0.61,0-2.21,2.84a4,4,0,0,0-3.23,1,21.92,21.92,0,0,1-.63-4.7,23,23,0,0,0,.41-4.25H410a3.28,3.28,0,0,1-1.13.33l-0.34-.7,0.37-1.47a1.29,1.29,0,0,0-.68-1.05l0.81-8.59a2.65,2.65,0,0,1-1-.36q-2.53.4-2.54,1.35l0,3.56q0,2.61-1.08,2.85h-0.78q-0.78-6.61-1.63-7.84a4.27,4.27,0,0,1-1.83.67,2.92,2.92,0,0,1-.33-1.48l-1.05.77q0-1-1.46-1.15a51.86,51.86,0,0,1,2.35-13.26,0.31,0.31,0,0,0-.34-0.35,8.09,8.09,0,0,1,1.45-4.24L400,463.81l0.4-3.56-1-1.84,0.37-1.39a2.7,2.7,0,0,1-.33-1.13l0.36-.69a2.74,2.74,0,0,1-.33-1.39,5.22,5.22,0,0,0,1.43-2.5,0.61,0.61,0,0,1-.69-0.7v-0.43a16,16,0,0,1,2.26-6.05,14.35,14.35,0,0,1-.74-2.88,72.67,72.67,0,0,0,2-10,3.28,3.28,0,0,1-.33-1.13l1.05-.68-0.34-.7V428q1.14-1.2,1.19-4.24l-1.11-1.49v-0.69l1.48-.33-1.11-1.49a0.31,0.31,0,0,1,.35-0.34l-0.32-1.74,0-1.13q0-.69,1.14-0.68l0-1.39L405,413.31l0-1.74q0-2.43,2.93-4.3a6,6,0,0,1-1-3.23q0-.26.38-2.17a10.43,10.43,0,0,1-.31-2.52,2.67,2.67,0,0,1,1-.33l-0.33-1.48a10.49,10.49,0,0,1,.83-3.55l-0.41-1.4a26.51,26.51,0,0,1,.84-4.33l-0.34-.7q1.07-1.72,1.84-7.19h0.35l-0.34-.7q2.21-3,2.33-11.09a4.35,4.35,0,0,1,2.53-1,0.31,0.31,0,0,1,.34.35,4.16,4.16,0,0,1,2.18-.67v-0.78h-0.69v-0.69Zm-15,100.93,0.32,1.83h0.35l0-1.82h-0.7Zm0.07-5,0.32,2.09h1a2.75,2.75,0,0,0-.33-1.4,2.93,2.93,0,0,0,.37-1.47Zm6.6,12.6a2.69,2.69,0,0,1-.36,1h0.7v-1h-0.35Zm0.09-6.78-0.37,1.73a1.49,1.49,0,0,0,1.06-1A0.62,0.62,0,0,0,408.91,467.58Zm12.83-41.79,0,2.43H422l0-2.43h-0.35Zm6.35-19.29v0.35q1,0,1,.71v0.35a12.36,12.36,0,0,1-2.62,7.52l0,3.56h0.7a0.61,0.61,0,0,1-.71.69,0.31,0.31,0,0,0-.34-0.35q0,1.13-1.84,1.1v0.35c0.75,0,1.13.25,1.12,0.71A2.85,2.85,0,0,1,423.5,424l-0.38,2.51,0.69,0.36v-0.69h0.78l0.32,1.74q-0.44,0-2.26,6.49a0.67,0.67,0,0,1,.69.7l0,1.39a0.35,0.35,0,0,1-.35.43,4.94,4.94,0,0,1,.31,2.44q6.89-1.82,6.9-2.34,0-.35,3.6-2.47v-0.35a3,3,0,0,0-.33-1.48,4.45,4.45,0,0,0,.73-2.51l1.82,0q11.17-3.84,11.21-6.62,2.82-3.26,5-3.23,2.09-6.4,4.12-8.54a0.31,0.31,0,0,0-.34-0.35,12.91,12.91,0,0,1,.74-3.2,11.68,11.68,0,0,1-.65-3.22h0.35q0.07-4.86-6.76-7.31-6.44.61-6.47,2.78-1,10.76-2.67,10.74-1.65-.2-2.33-14-0.7,0-.68-1.4h-0.35q-6.63,1.91-6.9,2.77Q430.17,406.53,428.08,406.5Zm-4.17-37.77,0.69,0.36q0,0.44-.75,4h-0.7A16.69,16.69,0,0,1,423.91,368.74Zm12.43,87.66v0.43a2.55,2.55,0,0,1,.67,1.4h0.7A3.27,3.27,0,0,0,436.34,456.4Zm1.7,34.52v1h0.69v-0.35A0.61,0.61,0,0,0,438,490.92Zm21.18-80.77-0.37,1.39h0.7l0-1.39h-0.35Zm3.62-4.29,0.33,1.48q0,2-3.73,12.46,1.74-.06,4.41-5h0.35l-0.34-.7q0.79-.59,1.48-6.41L464,405.52h-0.43Z" transform="translate(-150.91 -59.41)"/><path class="cls-1" d="M496.64,358.56l9.77-1q9.33-1,9.49.59a15.7,15.7,0,0,0,4.21-1.57q27.47-1.26,35.57,1,14.6,0.15,14.79,2,18.48-.34,18.69,1.65l0,0.35-0.78.08a4.57,4.57,0,0,1-2-.14l-2.3.59-1.56.16a4.67,4.67,0,0,1-2.41-.54l-2.29.67a2.83,2.83,0,0,0-1.17-.32l0.08,0.78-1.21.13-1.29-.65q0.13,1.21-.65,1.29l-1.2-.66-1.21.13-1,.89-3.89.4q-2.58,3-4,3.13l0-.35a38.08,38.08,0,0,1-7.93,3.53q-2.36,5-4.52,5.27l-5.1.53-0.28,20.12q-1.3.13-1.5,4.09l-0.86.09q-0.86.09-3.07-11.12l-0.16-1.56q-0.34-3.28-.74-10.58l-1.12.12a4.09,4.09,0,0,0-2,3.78l0.84,8.12q0.06,0.61-1.39,1.72l-0.81-.27-0.29,4.75a0.35,0.35,0,0,0,.39.4q0.14,4.7-.64,4.78l0.54,1.87L533,405.63l0.83,3.84q-0.54,9.14-1.4,9.23l0.51,1.52-0.07,2.71,0.63,2.73q-0.06,7-.49,13.85l0.43,0.74q0.08,0.78-.71,8.37a2.78,2.78,0,0,0,.55,1.08l-0.14,6.3a3.47,3.47,0,0,1,.51,1.52,4.69,4.69,0,0,0-.54,2.41l0.08,0.78a2.88,2.88,0,0,0,.59,1.51,2.78,2.78,0,0,0-.31,1.25l0.63,1.86a18.05,18.05,0,0,0-.29,4.83l0.72,7a0.69,0.69,0,0,1-.7.86q-1,.1-2.08-4.94a0.35,0.35,0,0,1-.47-0.3l0.35-.82-0.82-.35-0.43,0-0.27,1.6q0.56,1.17,1,1.12a5.76,5.76,0,0,0-.59,2.77l0.59,1.51-0.35.82a18.35,18.35,0,0,1,.75,3.07,78.38,78.38,0,0,0-.45,15.07q-1.12.12-.46,14.2l-0.73.51-1.21.12-0.4-3.89a6.28,6.28,0,0,0-1.1-3q0-4.36-.34-7.48l-0.24-2.33a88.84,88.84,0,0,1-2-12l-0.43,0q0.12,1.12-1.81,5.34l0.51,0.73a5.42,5.42,0,0,0-.93,2.8,18.47,18.47,0,0,1,.75,3.07q-1,1.68-1.83,1.76l0.9,1.13q-1.65,6-.82,22.53,0.75,7.26-1.32,10,0.51,11.74-1.13,11.91l-0.78.08q-1.26-.31-1.45-2.21l-0.16-1.55q-0.52-12.7-.63-13.73l-0.08-.78q-1.12.12-1.2-.66a3.28,3.28,0,0,1,.22-1.25l-0.51-1.52q-0.09-3.4.69-4.35l-0.08-.78-0.78.08-0.16-1.56,0.19-2.38-0.51-.73q0.78-.08.23-13-1.12.12-1.2-.66-0.33-3.2-.76-14.94l-1.29-.65q-0.09-13.53.52-17.78l-0.59-2.3L510,461.2q0.22-5.52.65-5.57L510,453.68l-0.12-1.12a14.17,14.17,0,0,1,.41-3.62,3.29,3.29,0,0,1-.47-1.17,3.32,3.32,0,0,0,.23-1.16,0.35,0.35,0,0,0-.39-0.4q-0.16-1.56,1.06-8.32-0.56-2-.59-2.3a14.24,14.24,0,0,1,.46-3.19,2.81,2.81,0,0,0-.56-1.17,27.42,27.42,0,0,0,0-4.37l-0.4-3.89q0.78-.08.74-0.43a2.8,2.8,0,0,1-.56-1.17l1.09-1.25a2.82,2.82,0,0,0-.56-1.17q-0.08-20.25.32-31.56-0.12-1.21-.33-6.6-0.78.08-.82-0.35l-0.73.51q-0.43,0-2.19-2.57l-5.87.61a0.74,0.74,0,0,0-.7.86q1.16,11.23-.78,11.87l-0.78.08q-2.79-12.64-3.65-12.55-4.67.48-4.87-1.51a15.34,15.34,0,0,1,.41-3.62q-0.76-1.49-1.28-1.44l-0.43,0-2.63.71-0.51-.73,0.65-1.29q-1,.11-2.1-1.7l0-.43a0.31,0.31,0,0,1,.31-0.38,12.23,12.23,0,0,1-2-4.16l-0.12-1.12q0.87-.09,1-2.46l7-.72A37,37,0,0,1,496.64,358.56Zm33.46,110,0.21,2,0.78-.08a2.63,2.63,0,0,1,.27-1.6l-0.82-.35Z" transform="translate(-150.91 -59.41)"/><path class="cls-1" d="M608.46,374.41l2.17,0q2.51,0.73,6.32,7.65c0,0.23.23,0.35,0.69,0.36a73.42,73.42,0,0,1,10.07.83,2.76,2.76,0,0,1,1.4-.33l1.48,0q4.25,0.15,4.25.75l0.7-.34a3.8,3.8,0,0,1,1.82.37l1.74-.32q8.93,1.51,8.9,3.34l0,1.82-0.71,1V390q4.52,0.06,6.4,2.26Q652.17,399,651,399a2.77,2.77,0,0,0-1.39-.37l-0.36.69-3.21-.74q-0.26,0-2.18.32l-5.72-.77a8.6,8.6,0,0,0-1.43,2.85l0.34,0.7a2.93,2.93,0,0,0-.37,1.47v0.35q0,0.7,1,.71v0.35a2.68,2.68,0,0,0-1,.33l-0.78-.36q-3.22,0-3.24,2.13a23.43,23.43,0,0,0-.41,4.6v1q-0.1,7.38-.62,20.06-0.46,1.73-1.07,1.72-1.83,0-2.12-29.31-1.83,0-1.81-.72l-1.74.32-2.17-.38a2.66,2.66,0,0,1-1,.33v0.35a0.67,0.67,0,0,0,.69.7,84.22,84.22,0,0,1-1.19,10.76h-0.78l0-1.48h-0.35l0,1.48h0.35a2.67,2.67,0,0,0-.36,1,2.7,2.7,0,0,1,.33,1c-0.35,0-.82.48-1.41,1.46V420q1,0,1,.71l-1.07,1.81a4.08,4.08,0,0,1,1,2.53,2.68,2.68,0,0,1-.36,1l0.62,5.74q-0.7,0-1.18,10a0.67,0.67,0,0,0-.71.69l0.68,1.14L618.61,445v1a1.54,1.54,0,0,0-1.06,1.12l1,1.4q-1.39,0-1.86,2.84l1.1,2.19v1l-1.13,0,0.41,1.83a3.85,3.85,0,0,1-1.16,2.42v0.43a3.31,3.31,0,0,1,1.13.36l-0.48,3.56v0.35l0.41,1.83a1.48,1.48,0,0,0-1.14,1v0.35l1.11,1.41,0,1.82,1.39,0q0,0.7-2.55,2.48l0,1.39h-0.35l0,1.13,0.7-.34a0.71,0.71,0,0,1,.77.71l-0.8,1a18.36,18.36,0,0,0,.3,3.22,0.31,0.31,0,0,1-.35.34l0.32,1.83-0.05,3.91q1.72,1.07,10.06,1.18a0.31,0.31,0,0,1,.35-0.34l1.72,1.15-1.08,2.42-2.51-.38-2.52.31a0.61,0.61,0,0,0-.69-0.7q-2.89,1.7-2.9,2.13l2.51,0.38,2.52,0,1,0.71,1.82,0q3.3,0,4.58,1.54a2.71,2.71,0,0,1,1.13-.33q0,0.7,1,.71v0.35l-1.82,0-0.69-.36a7.38,7.38,0,0,1-1.45,4.58,0.31,0.31,0,0,1,.34.35,2.33,2.33,0,0,1-1.14.42v0.35h0.78v0.69a12.39,12.39,0,0,0-2.88.66l-0.69-.36a19.75,19.75,0,0,0-2.18.32l-1.82-.37a2.67,2.67,0,0,1-1,.33l-0.69-.36q-2.6,0-3.27,3.86a0.31,0.31,0,0,1-.35.34,11.61,11.61,0,0,1,.64,4q-1,0-4.72,2-1.38-.54-1.38-1.06l0.06-4.6a0.66,0.66,0,0,0-.68-0.79q-1.83.41-1.84,1.1l0.32,1.74a25.94,25.94,0,0,1-3.93,1.77l-0.34-.7,0-3.65c-0.75,0-1.13-.13-1.12-0.36l-0.7.34a2.76,2.76,0,0,0-1.39-.37L601,506.63l0,3.56a19.82,19.82,0,0,1-1.19,4.24l-0.07,5.39q0,2.61-1.08,2.85h-0.7q-1.07-4.19-1.94-17.14-7.65.24-11.47,0.19h-0.7a0.65,0.65,0,0,1-.68-0.79l0.36-.69a13.41,13.41,0,0,1-1.78-3.59l0.44-.69-0.4-2.18a5.93,5.93,0,0,1,2.18-.67v-1l-0.68-1.14,0-2.17q0-1.48,7.85-2a3.27,3.27,0,0,0,1.13.36v-0.35l-0.31-2.52q0.1-.87,2.47-2.49l2.52,0,0-1.74q0-2.09.43-5.73a2.7,2.7,0,0,1-.33-1.13h0.35l-0.34-.7v-0.35a9.49,9.49,0,0,1,1.17-3.2q-1,0-1.09-3.23l0.36-.69-0.65-2.88q0-2.87,1.52-2.85V463q-1.55-1.06-2.09-6.11v-0.69q0.11-1.82.72-1.81l-0.32-1.74v-0.43a2.74,2.74,0,0,1,.37-1.39l-0.68-1.4q0.39-3.12.4-4a2.69,2.69,0,0,0-.33-1q0-3.21,1.78-3.19l-0.68-1.05q0.52,0,1.5-1.8a0.65,0.65,0,0,0-.77-0.71,0.31,0.31,0,0,1-.35.34l-0.34-.7a2.94,2.94,0,0,1,1.48-.33l0-1.13h-0.35l-0.79.34-0.34-.7,0-1.82,1.56-6a3.25,3.25,0,0,1-.33-1.48,78.55,78.55,0,0,0,1.53-10,0.31,0.31,0,0,0-.34-0.35q0.4-4.34,1.1-4.33l-0.34-.7,0-2.52q0-3.21-3.52-3.26v-0.69h-0.7l-0.7.34a2.31,2.31,0,0,1-.42-1H595.2a0.31,0.31,0,0,0-.35.34l-1.38-.71q0,0.44-2.19,1.36l-2.52,0q0,1.13-.71,1.12h-0.7l0.71-1.12v-0.35q-2.17,0-2.16-.72a3.54,3.54,0,0,1-1.74.32v1l1.39,0,0,1.13q-3.31.13-4.27,1l0.34,0.7V408q-0.69,0-6.1,1l-1.83,0a0.66,0.66,0,0,1-.68-0.79v-0.35l0.71-1a0.61,0.61,0,0,1-.68-0.71l1.15-1.46q-1.82-.46-1.81-1.07l0-1.39q0-.43,1.85-1.8l-0.43-.7v-0.35a2.48,2.48,0,0,1,.46-1.47q-1.08-3.4-1.08-3.58l1.51-2.15q3.92-.81,3.93-1.34,0.06-4.17,3.29-5.69,2.53-1.18,16.45-2.29v0.35a8.12,8.12,0,0,0,3.23-1l2.17,0.38a2.55,2.55,0,0,1,1.4-.68v-0.7a6.26,6.26,0,0,1,2.23-4.31A9.85,9.85,0,0,1,608.46,374.41ZM583,407.33l1.48,0V408L583,408v-0.69Zm2.17,0,1.48,0v0.69l-1.48,0v-0.69Zm5,0.07h1v0.69h-1v-0.69Zm2.06-23.17a0.71,0.71,0,0,0,.77.71l1.39,0v-1ZM603.47,503.1l-0.36.69v0.35l1.48,0v-0.69A3.27,3.27,0,0,1,603.47,503.1Zm5.87-35.37,0.69,0.36,0.37-1.38A1.49,1.49,0,0,0,609.34,467.73ZM609.51,481a2.76,2.76,0,0,1,.33,1.4,0.66,0.66,0,0,0,.79-0.68v-1.13h-0.43Zm0.22-15.72V466h0.35a2.82,2.82,0,0,1,1.51-2.15v-0.35h-0.35A2.09,2.09,0,0,0,609.72,465.31Zm5.85-8.52,0,1.39h0.35a2.65,2.65,0,0,1,.36-1Zm18.17,30.66a2.64,2.64,0,0,0,1,.36v0.69l-1.74.32-1.13,0a0.61,0.61,0,0,1-.69-0.7v-0.35Zm4-84.74h0.69l0,1.13h-0.69ZM645,396v0.7l0.7-.34a3.25,3.25,0,0,0,1.13.36V396.4l-0.34-.7A2.94,2.94,0,0,1,645,396Z" transform="translate(-150.91 -59.41)"/><path class="cls-1" d="M672.91,374.17q5.34,3,5.25,9.72l0,2.43h1A17.73,17.73,0,0,1,681,380l0.78,0.36a2.54,2.54,0,0,1,1.4-.68,7.34,7.34,0,0,1,4.54,5q2.08,0,5.74-.27l4.25,0.41a8.2,8.2,0,0,1,2.88-1q8.59,0.81,12.15.86a6.28,6.28,0,0,0,4.63-1.41q2.08,0,2.77,7.16a12.93,12.93,0,0,1-1.18,3.55,0.35,0.35,0,0,1,.34.44,16.71,16.71,0,0,1-4.26.64l0.34,0.7a2.67,2.67,0,0,0-.36,1,0.67,0.67,0,0,1,.68.7,3.32,3.32,0,0,0-.36,1.12l5.37,1.46v0.69a4.67,4.67,0,0,0-4.29,2.46,12.73,12.73,0,0,0-3.22.3,2.71,2.71,0,0,0-1.12-.36c0,0.46-.59.69-1.75,0.67v0.35l2.17,0.46v0.69l-1.48,0a76,76,0,0,0-8.87.92v1l-4.69-.06-0.05,3.91q-0.07,5.39-1.81,5.36-1,0-1.41-5l0.36-.78q-0.65-3.57-1-3.58-7-.1-7.15,2.07a11.21,11.21,0,0,0-1.8,4.93q0.62,5.74.6,7.13a13.83,13.83,0,0,0-.74,3.2l0.34,0.79a53.88,53.88,0,0,0-1.58,7.1,2.69,2.69,0,0,1,.33,1l-0.36.69q0.41,1.83,1.1,1.84l8.17,0.11a6.24,6.24,0,0,1,4.63-1.76q14.07,0.19,15.69,2.74l-0.71,1q1.74,0,2,5.41,3.2,0.74,3.55.74v0.35l-0.36.69a0.67,0.67,0,0,1,.69.71,6.21,6.21,0,0,1-2.89,1.44l1.11,1.41v0.35q-1.48,0-1.5,1.8a10.46,10.46,0,0,1-1.39.33V451a0.31,0.31,0,0,0-.35.34L711,451a22.35,22.35,0,0,0-3.23,1,2.68,2.68,0,0,0-1-.36l-0.36.69a4,4,0,0,1,2.51.73l1.74,0v0.78q-1.39,0-3.59,2l-5.65-.08v0.69a0.71,0.71,0,0,0,.68.79l1.74,0v0.35q0,0.7-5.67,1.31a3.27,3.27,0,0,0-1.47-.37q-2.44.4-2.54,7.44l-1.14.68h-0.35q-0.52,0-1.37-1.41l0-2.87L691,460.69q-5.39.27-7.91,0.24l-1.39,0-1.37-1.15H679.9q0,1.82-.72,1.81l-0.69-.36,0,2.09,1.05-.68h0.35l0,1.48a0.61,0.61,0,0,1-.71.69l-0.69-.36-0.36.69L678,469q0.69,0,.71-1.38h0.7q-0.23,3.91-.75,3.9a2.37,2.37,0,0,0-1.75,1,0.31,0.31,0,0,0-.34-0.35l-0.47,2.51v1q0.78,0,.8-1h0.35l0,1.39q-1.85,1.8-2.54,1.79v0.35a2.55,2.55,0,0,1,1.38.71,0.78,0.78,0,0,1,.79-0.68q0.52,0,1.37,1.41v0.35q-1.39,0-1.4.68l0,1.13,2.08,0.72L693.51,481l0.78,0.36a2.68,2.68,0,0,1,1-.33,1.66,1.66,0,0,0,1,1.14l3.22-.3q2.17,0.38,2.16,1.07l-0.71,1q1.91,0,2.73,3.95a0.31,0.31,0,0,1,.34.35,8.57,8.57,0,0,0,1.48-.33,19.35,19.35,0,0,0,2.17.38l0.7-.34a6.05,6.05,0,0,0,2.07,1.16v0.69l-0.71,1a12.75,12.75,0,0,0,5.36,2.25l3.21,0q2,2.11,2.4,2.12l-0.71,1.47q0.87,0,2.11,4.63l-2.89,1.35q-9.31.65-17.47,0.54v0.35l4.26,0.06V504a0.61,0.61,0,0,1-.71.68l-3.91-.05q-2.61,0-2.88,1l0,3.21a2.46,2.46,0,0,1-1.42,2.5H696.3q-1-.27-1-2.88l0-2.52q0-.69-1-0.71a57.31,57.31,0,0,0-13.58,2l-1.82-.37h-0.35a36.88,36.88,0,0,0-5,.63l-0.09,6.43L673.13,516a0.31,0.31,0,0,0,.34.35q-0.56,8.94-2.29,8.92-0.87,0-1.34-3.93l0.06-4.6a2.92,2.92,0,0,1,.37-1.47q-0.35,0-.59-7.48-6.08-.08-6-4.69-2-4.54-5.22-5.46-0.7,0-1.78-3.24l0-3.56q0.3-3.12,1.09-3.2l-0.32-2.09q1.13-24.92,2.17-24.91l-0.34-.79,0-3.56a2.74,2.74,0,0,1,.37-1.39,0.31,0.31,0,0,0-.34-0.35l0.4-3.56,0-2.87q1.39,0,2.49-3.88-2.41-1.42-2.41-1.86l0.08-6a3.26,3.26,0,0,0-.33-1.48q1-6,1.47-6l-0.33-1.48q1.23-7.45,2.66-10a2.7,2.7,0,0,0-.33-1q2.59-12,2.61-13.17-0.7,0-.68-1.05,2-2.93,2.7-12.82,0.61,0,1.51-8.84,1.18-3.89,1.88-4.23l-0.34-.79Q670.82,374.92,672.91,374.17ZM660.5,448.8l0,2.52h0.35a4.77,4.77,0,0,1,.38-2.17Zm0.12-8.51V441a0.67,0.67,0,0,0,.68.7l0.36-.69,0-1.39h-0.35A0.67,0.67,0,0,0,660.62,440.29Zm14.75,39.39a0.67,0.67,0,0,0,.68.7h0.43a0.66,0.66,0,0,0-.77-0.71h-0.35Zm2.3-9.61a2.72,2.72,0,0,1,.33,1.13l0.7-.42a2.67,2.67,0,0,1-.33-1Zm1.19-11-0.36.69,0.69,0.36,0.36-.69Zm-0.09,6.78h0.7v1h-0.7v-1Zm14.08,37.64v0.69l1.83-.32v-0.35Zm5.34-47.37a0.67,0.67,0,0,0,.69.71,0.61,0.61,0,0,0,.7-0.69Zm9.68,47.57,2.78,0v0.69l-2.78,0v-0.69Z" transform="translate(-150.91 -59.41)"/><path class="cls-1" d="M776.44,382.54l2.87,0A48.52,48.52,0,0,1,790.45,387v-0.78l1.39,0,2.18-.32,1.48,0a0.71,0.71,0,0,1,.71-0.77h0.7q17.6,2.85,17.58,4.5a5.76,5.76,0,0,1,1.79,2.72l-0.37,1.56a2.71,2.71,0,0,1,.33,1.13l-1.49.76,0.42,0.79v0.78l-2.52.31a20,20,0,0,1-3.3-.39l-0.7.34a11.34,11.34,0,0,0-2.51-.38l-1.83.32,0.77,1.14q-2,1.54-10.53,1.42,0,0.7-6.1,1.48-0.86,11.63-3,11.6-0.05,3.82-1.18,3.81-0.61,0-2.05-8.54a3.12,3.12,0,0,1-1.72-1.15q-3.22,0-7.62,4.5-1.3,0-10.92,4.11h-0.35q0.24,1.66,6.09,5.47,0,0.78,4.22,2.4,0,1.3,8.94,6.73h0.35v0.78h-1a0.69,0.69,0,0,1-.77-0.79l-0.7.34a5.46,5.46,0,0,0-2.16-.81q0,0.78-2.19,1.19a20.15,20.15,0,0,0-6.74-2.44c0-.35-0.49-0.62-1.47-0.8a2.32,2.32,0,0,1-1.14.42q2.23,1.77,24.33,12.67a7.15,7.15,0,0,1,3.25,3.87v0.78a2.78,2.78,0,0,0-.8,1.55q4.61,5.8,4.6,6.67,0,2.69,6.43,6.26,5.34,3.64,5.28,7.81a0.31,0.31,0,0,1,.34.35q-2.87.4-2.89,2a35.76,35.76,0,0,1,3.52,9.26q-1.2,4.85-2.61,6.57a23.34,23.34,0,0,0-1.57,6.93l-1.5,1.54a2.55,2.55,0,0,1-1.7-2.72l0.06-4.26h-0.78q-0.87,0-5.84,7.65-4.73,2.8-4.76,5.32-0.11,8.25-2.35,13.09-0.09,6.6-1.48,6.58a0.69,0.69,0,0,1-.77-0.79A159.62,159.62,0,0,0,784.19,501l-1.13,0-1.05.77a1.7,1.7,0,0,0-1.11-1.23l-17.05,7.93a12.55,12.55,0,0,1-2.86-.82,2.67,2.67,0,0,1-1,.33l-1.82-.37q-4.19,1.33-5.08,2.62l-0.06,4.6a3.47,3.47,0,0,1-.37,1.56,0.35,0.35,0,0,0,.34.44,123.58,123.58,0,0,1-3.13,18.9l-0.7.34a4.84,4.84,0,0,1-1.43-3.15l0.1-7.3q0.2-14.33-2.32-14.37-0.44,0-1.8-1.94a26.58,26.58,0,0,0,.4-3.47q-10.41-1.45-10.35-5.53a60.23,60.23,0,0,0-1.73-6.63q0-.87,3.32-1.08v-0.43q-6.77-6.78-6.76-7.39a21.89,21.89,0,0,0,.75-3.9,0.66,0.66,0,0,1-.68-0.79l0.36-.78-2.13-3.07,0.37-1.56a23.29,23.29,0,0,1-.3-3.48l0.36-.78a10.32,10.32,0,0,1-.65-3.14l0.36-.78a4.29,4.29,0,0,1-.67-1.92,0.31,0.31,0,0,0,.35-0.34l1.82,0.37,2.2-1.88H731A106.46,106.46,0,0,1,751,478.11q0.59,1.14,7.13,6.27h0.35q1.22,0,10.94-5.67,1.91,0,4.65-3.41,5.26-3.06,5.86-3v-0.78q-5.06-4.76-22.41-19.25h-0.43q-0.24,4.69-1.46,4.67-1.56,0-2.73-9.68-6.09-5.9-6-8.6-2.52,0-7-15.22-1.3,0-2.46-4.29l0.8-1.55-0.42-.79q1.16-8.24,10-19.15a68.6,68.6,0,0,1,5.54-4.53H754l0,1.13h1q0-1.56.8-1.55a0.71,0.71,0,0,0,.68.79h0.35q0.35,0,4.74-3.76a0.31,0.31,0,0,0,.34.35,50.06,50.06,0,0,1,9.44-4.48L772,386Q773.74,382.51,776.44,382.54ZM738.07,499.92l1,1.58,0,1.91q1.83,0,3.69-3a8,8,0,0,0-2.51-.82Zm22.53-14.37a3.55,3.55,0,0,0,1.81.81,17.54,17.54,0,0,0,3.94-1.86l0-1.56H766Q760.62,483.63,760.59,485.54Zm10.15-4.9h0.7a3,3,0,0,0,1.84-1.54v-0.35Q771,479.52,770.74,480.64ZM782,500.18v0.35h0.35a0.66,0.66,0,0,0,.71-0.77V499Q782.56,499,782,500.18Z" transform="translate(-150.91 -59.41)"/></svg>